G04 #@! TF.GenerationSoftware,KiCad,Pcbnew,10.0.1-10.0.1~ubuntu24.04.1*
G04 #@! TF.CreationDate,2026-04-26T19:29:01+07:00*
G04 #@! TF.ProjectId,OscilloBP Monitor,4f736369-6c6c-46f4-9250-204d6f6e6974,rev?*
G04 #@! TF.SameCoordinates,Original*
G04 #@! TF.FileFunction,Soldermask,Bot*
G04 #@! TF.FilePolarity,Negative*
%FSLAX46Y46*%
G04 Gerber Fmt 4.6, Leading zero omitted, Abs format (unit mm)*
G04 Created by KiCad (PCBNEW 10.0.1-10.0.1~ubuntu24.04.1) date 2026-04-26 19:29:01*
%MOMM*%
%LPD*%
G01*
G04 APERTURE LIST*
G04 Aperture macros list*
%AMRoundRect*
0 Rectangle with rounded corners*
0 $1 Rounding radius*
0 $2 $3 $4 $5 $6 $7 $8 $9 X,Y pos of 4 corners*
0 Add a 4 corners polygon primitive as box body*
4,1,4,$2,$3,$4,$5,$6,$7,$8,$9,$2,$3,0*
0 Add four circle primitives for the rounded corners*
1,1,$1+$1,$2,$3*
1,1,$1+$1,$4,$5*
1,1,$1+$1,$6,$7*
1,1,$1+$1,$8,$9*
0 Add four rect primitives between the rounded corners*
20,1,$1+$1,$2,$3,$4,$5,0*
20,1,$1+$1,$4,$5,$6,$7,0*
20,1,$1+$1,$6,$7,$8,$9,0*
20,1,$1+$1,$8,$9,$2,$3,0*%
G04 Aperture macros list end*
%ADD10R,1.700000X1.700000*%
%ADD11C,1.700000*%
%ADD12RoundRect,0.102000X-0.990600X-0.279400X0.990600X-0.279400X0.990600X0.279400X-0.990600X0.279400X0*%
%ADD13R,2.790000X2.790000*%
%ADD14C,1.800000*%
%ADD15R,1.800000X1.800000*%
%ADD16C,0.800000*%
%ADD17C,6.400000*%
%ADD18C,1.712000*%
%ADD19RoundRect,0.102000X-0.754000X-0.754000X0.754000X-0.754000X0.754000X0.754000X-0.754000X0.754000X0*%
%ADD20RoundRect,0.250001X-0.949999X-0.949999X0.949999X-0.949999X0.949999X0.949999X-0.949999X0.949999X0*%
%ADD21C,2.400000*%
%ADD22RoundRect,0.249999X-0.850001X0.850001X-0.850001X-0.850001X0.850001X-0.850001X0.850001X0.850001X0*%
%ADD23C,2.200000*%
%ADD24RoundRect,0.249999X0.850001X0.850001X-0.850001X0.850001X-0.850001X-0.850001X0.850001X-0.850001X0*%
%ADD25RoundRect,0.250001X-0.799999X-1.549999X0.799999X-1.549999X0.799999X1.549999X-0.799999X1.549999X0*%
%ADD26O,2.100000X3.600000*%
%ADD27C,1.440000*%
%ADD28RoundRect,0.250000X-0.550000X0.550000X-0.550000X-0.550000X0.550000X-0.550000X0.550000X0.550000X0*%
%ADD29C,1.600000*%
%ADD30RoundRect,0.250000X0.412500X0.650000X-0.412500X0.650000X-0.412500X-0.650000X0.412500X-0.650000X0*%
%ADD31C,2.000000*%
%ADD32RoundRect,0.250000X-0.400000X-0.625000X0.400000X-0.625000X0.400000X0.625000X-0.400000X0.625000X0*%
%ADD33RoundRect,0.250000X0.650000X-0.412500X0.650000X0.412500X-0.650000X0.412500X-0.650000X-0.412500X0*%
%ADD34RoundRect,0.076200X-0.500000X0.125000X-0.500000X-0.125000X0.500000X-0.125000X0.500000X0.125000X0*%
%ADD35RoundRect,0.076200X0.500000X-0.125000X0.500000X0.125000X-0.500000X0.125000X-0.500000X-0.125000X0*%
%ADD36RoundRect,0.250000X-0.650000X0.412500X-0.650000X-0.412500X0.650000X-0.412500X0.650000X0.412500X0*%
%ADD37RoundRect,0.250000X-0.412500X-0.650000X0.412500X-0.650000X0.412500X0.650000X-0.412500X0.650000X0*%
%ADD38RoundRect,0.250000X0.275000X0.350000X-0.275000X0.350000X-0.275000X-0.350000X0.275000X-0.350000X0*%
%ADD39C,1.905000*%
%ADD40O,1.380000X2.400000*%
G04 APERTURE END LIST*
D10*
X17800000Y-94460000D03*
D11*
X17800000Y-97000000D03*
D12*
X90537800Y-107005000D03*
X90537800Y-105735000D03*
X90537800Y-104465000D03*
X90537800Y-103195000D03*
X95262200Y-103195000D03*
X95262200Y-104465000D03*
X95262200Y-105735000D03*
X95262200Y-107005000D03*
D13*
X38850000Y-55080000D03*
X38840000Y-47160000D03*
X38850000Y-58250000D03*
X38850000Y-43990000D03*
X15500000Y-58250000D03*
X15500000Y-44000000D03*
D14*
X99060000Y-85400000D03*
D15*
X101600000Y-85400000D03*
D14*
X99060000Y-91000000D03*
D15*
X101600000Y-91000000D03*
D14*
X99060000Y-96200000D03*
D15*
X101600000Y-96200000D03*
D16*
X19400000Y-106000000D03*
X18697056Y-107697056D03*
X18697056Y-104302944D03*
X17000000Y-108400000D03*
D17*
X17000000Y-106000000D03*
D16*
X17000000Y-103600000D03*
X15302944Y-107697056D03*
X15302944Y-104302944D03*
X14600000Y-106000000D03*
D18*
X86500000Y-46760000D03*
X86500000Y-49300000D03*
X86500000Y-51840000D03*
X86500000Y-54380000D03*
X86500000Y-56920000D03*
X86500000Y-59460000D03*
X86500000Y-62000000D03*
X86500000Y-64540000D03*
X86500000Y-67080000D03*
X86500000Y-69620000D03*
X86500000Y-72160000D03*
X86500000Y-74700000D03*
X86500000Y-77240000D03*
X86500000Y-79780000D03*
X86500000Y-82320000D03*
X86500000Y-84860000D03*
X86500000Y-87400000D03*
X86500000Y-89940000D03*
X86500000Y-92480000D03*
X86500000Y-95020000D03*
X71260000Y-95020000D03*
X71260000Y-92480000D03*
X71260000Y-89940000D03*
X71260000Y-87400000D03*
X71260000Y-84860000D03*
X71260000Y-82320000D03*
X71260000Y-79780000D03*
X71260000Y-77240000D03*
X71260000Y-74700000D03*
X71260000Y-72160000D03*
X71260000Y-69620000D03*
X71260000Y-67080000D03*
X71260000Y-64540000D03*
X71260000Y-62000000D03*
X71260000Y-59460000D03*
X71260000Y-56920000D03*
X71260000Y-54380000D03*
X71260000Y-51840000D03*
X71260000Y-49300000D03*
D19*
X71260000Y-46760000D03*
D20*
X30987246Y-69000000D03*
D21*
X38487246Y-69000000D03*
D16*
X99400000Y-17000000D03*
X100102944Y-15302944D03*
X100102944Y-18697056D03*
X101800000Y-14600000D03*
D17*
X101800000Y-17000000D03*
D16*
X101800000Y-19400000D03*
X103497056Y-15302944D03*
X103497056Y-18697056D03*
X104200000Y-17000000D03*
D22*
X48000000Y-79420000D03*
D23*
X48000000Y-89580000D03*
D16*
X14600000Y-17000000D03*
X15302944Y-15302944D03*
X15302944Y-18697056D03*
X17000000Y-14600000D03*
D17*
X17000000Y-17000000D03*
D16*
X17000000Y-19400000D03*
X18697056Y-15302944D03*
X18697056Y-18697056D03*
X19400000Y-17000000D03*
D24*
X37580000Y-88500000D03*
D23*
X27420000Y-88500000D03*
D16*
X99600000Y-106000000D03*
X100302944Y-104302944D03*
X100302944Y-107697056D03*
X102000000Y-103600000D03*
D17*
X102000000Y-106000000D03*
D16*
X102000000Y-108400000D03*
X103697056Y-104302944D03*
X103697056Y-107697056D03*
X104400000Y-106000000D03*
D10*
X101400000Y-46300000D03*
D11*
X101400000Y-43760000D03*
X101400000Y-41220000D03*
X101400000Y-38680000D03*
D25*
X25775000Y-100622500D03*
D26*
X33395000Y-100622500D03*
X41015000Y-100622500D03*
X48635000Y-100622500D03*
D27*
X21500000Y-82000000D03*
X21500000Y-84540000D03*
X21500000Y-87080000D03*
D28*
X42000000Y-79817621D03*
D29*
X42000000Y-82317621D03*
D30*
X75062500Y-105700000D03*
X71937500Y-105700000D03*
D31*
X101500000Y-66500000D03*
X95000000Y-66500000D03*
X101500000Y-71000000D03*
X95000000Y-71000000D03*
X101500000Y-76250000D03*
X95000000Y-76250000D03*
X101500000Y-80750000D03*
X95000000Y-80750000D03*
D32*
X78950000Y-100500000D03*
X82050000Y-100500000D03*
D33*
X72900000Y-101525000D03*
X72900000Y-98400000D03*
D34*
X67000000Y-95500000D03*
X67000000Y-96000000D03*
X67000000Y-96500000D03*
X67000000Y-97000000D03*
X67000000Y-97500000D03*
D35*
X62773800Y-97500000D03*
X62773800Y-97000000D03*
X62773800Y-96500000D03*
X62773800Y-96000000D03*
X62773800Y-95500000D03*
D30*
X68162500Y-105850000D03*
X65037500Y-105850000D03*
D32*
X65450000Y-101000000D03*
X68550000Y-101000000D03*
D36*
X86100000Y-105837500D03*
X86100000Y-108962500D03*
D37*
X71937500Y-108800000D03*
X75062500Y-108800000D03*
D38*
X67450000Y-108875000D03*
X65150000Y-108875000D03*
D31*
X101500000Y-56500000D03*
X95000000Y-56500000D03*
X101500000Y-61000000D03*
X95000000Y-61000000D03*
D39*
X87305000Y-30500000D03*
X31695000Y-30500000D03*
D40*
X95950000Y-30500000D03*
X23050000Y-30500000D03*
M02*
