M48
; DRILL file KiCad 10.0.1-10.0.1~ubuntu24.04.1 date 2026-04-26T19:29:10
; FORMAT={-:-/ absolute / metric / decimal}
; #@! TF.CreationDate,2026-04-26T19:29:10+07:00
; #@! TF.GenerationSoftware,Kicad,Pcbnew,10.0.1-10.0.1~ubuntu24.04.1
; #@! TF.FileFunction,MixedPlating,1,2
FMAT,2
METRIC
; #@! TA.AperFunction,Plated,PTH,ViaDrill
T1C0.300
; #@! TA.AperFunction,Plated,PTH,ComponentDrill
T2C0.300
; #@! TA.AperFunction,Plated,PTH,ComponentDrill
T3C0.500
; #@! TA.AperFunction,Plated,PTH,ComponentDrill
T4C0.800
; #@! TA.AperFunction,Plated,PTH,ComponentDrill
T5C0.900
; #@! TA.AperFunction,Plated,PTH,ComponentDrill
T6C1.000
; #@! TA.AperFunction,Plated,PTH,ComponentDrill
T7C1.100
; #@! TA.AperFunction,Plated,PTH,ComponentDrill
T8C1.200
; #@! TA.AperFunction,Plated,PTH,ComponentDrill
T9C1.400
; #@! TA.AperFunction,Plated,PTH,ComponentDrill
T10C1.500
; #@! TA.AperFunction,Plated,PTH,ComponentDrill
T11C3.200
%
G90
G05
T1
X25.4Y-69.9
X25.4Y-77.2
X28.45Y-78.55
X33.7Y-88.5
X36.481Y-96.3
X39.375Y-93.5
X46.7Y-92.5
X52.5Y-84.2
X54.0Y-97.5
X56.25Y-99.35
X57.25Y-88.95
X57.25Y-93.0
X59.3Y-89.5
X60.8Y-99.0
X61.7Y-106.45
X64.2Y-95.4
X65.6Y-88.6
X65.6Y-98.975
X67.4Y-107.7
X67.5Y-57.7
X76.2Y-99.4
X77.2Y-107.7
X81.6Y-103.0
X88.4Y-106.45
T2
X46.0Y-51.7
X46.0Y-52.9
T3
X14.6Y-17.0
X14.6Y-106.0
X15.303Y-15.303
X15.303Y-18.697
X15.303Y-104.303
X15.303Y-107.697
X17.0Y-14.6
X17.0Y-19.4
X17.0Y-103.6
X17.0Y-108.4
X18.697Y-15.303
X18.697Y-18.697
X18.697Y-104.303
X18.697Y-107.697
X19.4Y-17.0
X19.4Y-106.0
X99.4Y-17.0
X99.6Y-106.0
X100.103Y-15.303
X100.103Y-18.697
X100.303Y-104.303
X100.303Y-107.697
X101.8Y-14.6
X101.8Y-19.4
X102.0Y-103.6
X102.0Y-108.4
X103.497Y-15.303
X103.497Y-18.697
X103.697Y-104.303
X103.697Y-107.697
X104.2Y-17.0
X104.4Y-106.0
T4
X21.5Y-82.0
X21.5Y-84.54
X21.5Y-87.08
X42.0Y-79.818
X42.0Y-82.318
T5
X99.06Y-85.4
X99.06Y-91.0
X99.06Y-96.2
X101.6Y-85.4
X101.6Y-91.0
X101.6Y-96.2
T6
X17.8Y-94.46
X17.8Y-97.0
X71.26Y-46.76
X71.26Y-49.3
X71.26Y-51.84
X71.26Y-54.38
X71.26Y-56.92
X71.26Y-59.46
X71.26Y-62.0
X71.26Y-64.54
X71.26Y-67.08
X71.26Y-69.62
X71.26Y-72.16
X71.26Y-74.7
X71.26Y-77.24
X71.26Y-79.78
X71.26Y-82.32
X71.26Y-84.86
X71.26Y-87.4
X71.26Y-89.94
X71.26Y-92.48
X71.26Y-95.02
X86.5Y-46.76
X86.5Y-49.3
X86.5Y-51.84
X86.5Y-54.38
X86.5Y-56.92
X86.5Y-59.46
X86.5Y-62.0
X86.5Y-64.54
X86.5Y-67.08
X86.5Y-69.62
X86.5Y-72.16
X86.5Y-74.7
X86.5Y-77.24
X86.5Y-79.78
X86.5Y-82.32
X86.5Y-84.86
X86.5Y-87.4
X86.5Y-89.94
X86.5Y-92.48
X86.5Y-95.02
X101.4Y-38.68
X101.4Y-41.22
X101.4Y-43.76
X101.4Y-46.3
T7
X27.42Y-88.5
X37.58Y-88.5
X48.0Y-79.42
X48.0Y-89.58
X95.0Y-56.5
X95.0Y-61.0
X95.0Y-66.5
X95.0Y-71.0
X95.0Y-76.25
X95.0Y-80.75
X101.5Y-56.5
X101.5Y-61.0
X101.5Y-66.5
X101.5Y-71.0
X101.5Y-76.25
X101.5Y-80.75
T8
X30.987Y-69.0
X38.487Y-69.0
T9
X25.775Y-100.623
X33.395Y-100.623
X41.015Y-100.623
X48.635Y-100.623
T10
X15.5Y-44.0
X15.5Y-58.25
X38.84Y-47.16
X38.85Y-43.99
X38.85Y-55.08
X38.85Y-58.25
T11
X17.0Y-17.0
X17.0Y-106.0
X31.695Y-30.5
X87.305Y-30.5
X101.8Y-17.0
X102.0Y-106.0
T4
G00X23.05Y-31.0
M15
G01X23.05Y-30.0
M16
G05
G00X95.95Y-31.0
M15
G01X95.95Y-30.0
M16
G05
M30
